PathFileType	4	(X/Y/Z)	TVC_60_Cal_03_0_static_RCNL2025.trc
DataRate	CameraRate	NumFrames	NumMarkers	Units	OrigDataRate	OrigDataStartFrame	OrigNumFrames
100	100	6	27	mm	100	178	354
Frame#	Time	R_Shoulder			L_Shoulder			C7			J_Notch			R_Elbow			L_Elbow			R_Wrist			L_Wrist			R_Asis			L_Asis			R_Psis			L_Psis			Sacral			Thoracic			Sternum			R_Thigh_Lateral			R_Knee_Lateral			R_Shank_Lateral			R_Ankle_Lateral			R_Heel			R_Toe			L_Thigh_Lateral			L_Knee_Lateral			L_Shank_Lateral			L_Ankle_Lateral			L_Heel			L_Toe		
		X1	Y1	Z1	X2	Y2	Z2	X3	Y3	Z3	X4	Y4	Z4	X5	Y5	Z5	X6	Y6	Z6	X7	Y7	Z7	X8	Y8	Z8	X9	Y9	Z9	X10	Y10	Z10	X11	Y11	Z11	X12	Y12	Z12	X13	Y13	Z13	X14	Y14	Z14	X15	Y15	Z15	X16	Y16	Z16	X17	Y17	Z17	X18	Y18	Z18	X19	Y19	Z19	X20	Y20	Z20	X21	Y21	Z21	X22	Y22	Z22	X23	Y23	Z23	X24	Y24	Z24	X25	Y25	Z25	X26	Y26	Z26	X27	Y27	Z27
178	1.77000000	-293.716675	1350.957031	-63.860897	-267.340759	1358.310181	-406.534637	-313.028107	1417.597046	-250.419769	-213.162231	1285.910767	-230.701355	-351.248901	1011.946106	-1.884036	-303.993683	1009.971313	-456.155304	-301.235657	795.140930	73.634384	-204.013512	797.962555	-481.212097	NaN	NaN	NaN	-205.894012	915.635498	-363.990326	-388.941254	919.811401	-164.539032	-386.276917	918.372620	-274.283783	-387.609085	919.092010	-219.411407	-371.067413	1197.552002	-240.735382	-172.619553	1094.575073	-218.632996	-244.455612	607.311829	-11.234887	-251.472931	448.578705	-87.098541	-281.614075	233.276062	-47.589161	-329.931915	65.385292	-114.991547	-371.552826	58.188679	-164.420532	-200.345734	43.382954	-119.416458	NaN	NaN	NaN	-249.586609	441.159027	-330.115570	-295.898224	253.079834	-359.747345	-333.184387	59.774048	-278.507507	-376.751709	61.367016	-235.546127	-205.482086	43.482349	-270.981873
179	1.78000000	-293.661316	1350.785889	-63.553207	-267.874573	1358.169800	-406.311768	-313.505707	1417.171265	-250.007568	-213.238159	1285.752319	-230.659042	-350.879700	1011.926392	-1.398948	-304.347412	1009.805359	-455.866241	-300.659637	794.980713	73.840836	-204.584473	797.974213	-481.399719	NaN	NaN	NaN	-205.932617	915.707336	-364.050690	-388.628204	919.526001	-164.175125	-386.124115	918.121155	-273.963318	-387.376160	918.823578	-219.069221	-371.070435	1197.270386	-240.326843	-172.476883	1094.595337	-218.617874	-243.799515	607.264526	-10.851762	-251.313583	448.404663	-86.995605	-281.517334	233.260941	-47.703018	-329.952301	65.310905	-115.085197	-371.515594	58.133606	-164.452179	-200.408890	43.380405	-119.430351	-259.736786	631.204041	-413.864319	-249.206955	441.151978	-330.041473	-295.669495	253.054306	-359.717621	-333.101532	59.715630	-278.543304	-376.678833	61.288784	-235.525177	-205.456284	43.451778	-270.938446
180	1.79000000	-293.653870	1350.764160	-63.364983	-268.494141	1358.105347	-406.173981	-313.943604	1417.072754	-249.544800	-214.286346	1285.510376	-229.801208	-350.307037	1011.841553	-1.051117	-304.758575	1009.718994	-455.531464	-300.171722	794.905334	74.138306	-204.475510	798.007355	-481.104965	NaN	NaN	NaN	-205.994812	915.641602	-363.985291	-388.257568	919.485291	-163.798431	-386.011963	917.971558	-273.607788	-387.134766	918.728424	-218.703110	-371.064728	1197.058350	-239.926529	-172.488861	1094.567505	-218.645004	-243.205704	607.234009	-10.708282	-251.130066	448.399078	-86.928879	-281.531250	233.205475	-47.514164	-329.993500	65.353714	-114.971771	-371.511536	58.124142	-164.462479	-200.359711	43.337009	-119.316788	-259.303802	631.083557	-413.945099	-249.103516	441.264313	-330.078583	-295.545471	253.048843	-359.702209	-333.098694	59.677223	-278.489471	-376.681091	61.366203	-235.534897	-205.448090	43.490189	-270.981354
181	1.80000000	-293.391510	1350.698486	-62.804935	-269.076385	1358.060303	-406.042725	-314.350037	1416.941895	-249.127380	-214.285751	1285.505493	-229.801819	-349.807922	1011.677063	-0.753565	-305.195526	1009.591309	-455.103149	-299.276886	794.978943	74.453056	-204.962578	798.074951	-481.249191	NaN	NaN	NaN	-205.883682	915.698181	-363.892212	-387.893005	919.324585	-163.380722	-385.885620	917.798706	-273.194733	-386.889313	918.561646	-218.287727	-371.128662	1196.911743	-239.433792	-172.241318	1094.666992	-218.557449	-242.868515	607.159363	-10.661852	-251.028549	448.352966	-86.810493	-281.573242	233.148575	-47.509079	-329.971375	65.311699	-115.034538	-371.460236	58.085873	-164.408768	-200.289001	43.361984	-119.373642	-259.213959	631.128235	-413.904572	-248.896317	441.357422	-330.009155	-295.368744	253.084305	-359.594086	-333.082245	59.723801	-278.500580	-376.582642	61.311539	-235.444595	-205.429443	43.468994	-270.894714
182	1.81000000	-293.168274	1350.633667	-62.440811	-269.745850	1357.859131	-405.862366	-314.727417	1416.868042	-248.749115	-214.712341	1285.530273	-229.480850	-349.298279	1011.615723	-0.361573	-305.616058	1009.454651	-454.808594	-298.458923	794.981812	74.861488	-205.120766	798.135498	-480.953461	NaN	NaN	NaN	-205.971146	915.785217	-363.881012	-387.578064	919.210632	-163.028687	-385.658661	917.710327	-272.909210	-386.618362	918.460480	-217.968948	-371.074219	1196.945557	-238.830811	-172.201645	1094.679077	-218.640030	-242.537308	607.099915	-10.613796	-250.876328	448.273041	-86.617088	-281.221771	233.221970	-47.633129	-329.853333	65.340141	-115.004662	-371.549042	58.118446	-164.388351	-200.370605	43.317528	-119.398994	-258.980835	631.047791	-413.828705	-248.716476	441.308777	-329.946198	-295.307922	253.126862	-359.588409	-333.066650	59.812012	-278.522766	-376.657898	61.441975	-235.457626	-205.114716	43.766975	-270.802521
183	1.82000000	-292.885376	1350.671753	-62.057968	-270.360229	1357.780396	-405.694000	-315.113983	1416.661377	-248.376221	-213.980209	1285.677612	-230.036667	-348.618103	1011.449463	-0.037472	-306.062256	1009.264526	-454.326202	-297.727844	794.865173	75.156197	-205.287140	798.155579	-480.805496	NaN	NaN	NaN	-205.911972	915.729919	-363.724457	-387.194550	919.121643	-162.491669	-385.468872	917.591736	-272.577026	-386.331711	918.356689	-217.534348	-371.071411	1196.837036	-238.294144	-171.996017	1094.704712	-218.551346	-242.175842	606.866150	-10.646521	-250.594955	448.158905	-86.602264	-281.236176	233.218353	-47.430729	-329.816315	65.304062	-114.974174	-371.506927	58.166378	-164.350815	-200.333282	43.336239	-119.355820	-258.909424	630.935547	-413.769104	-248.452698	441.320343	-329.919739	-295.020386	253.074997	-359.157715	-332.949432	59.738815	-278.494965	-376.570740	61.425766	-235.492889	-205.146225	43.776554	-270.853851
